<svg width="144" height="180" viewBox="0 0 144 180" fill="none" xmlns="http://www.w3.org/2000/svg">
<rect y="18" width="144" height="144" rx="16" fill="url(#paint0_linear_22_8)"/>
<path d="M51.88 135.184C43.72 135.184 39.64 132.208 39.64 126.256C39.64 122.992 40.6 121.36 42.52 121.36C43.096 121.36 43.384 121.84 43.384 122.8C43.384 122.992 43.384 123.232 43.384 123.52C43.384 123.808 43.336 124.192 43.24 124.672C43.144 125.152 43.096 125.584 43.096 125.968C43.096 126.352 43.096 126.64 43.096 126.832C43.096 130.864 45.736 132.88 51.016 132.88C59.656 132.88 66.184 125.92 70.6 112C71.272 109.888 72.136 106.24 73.192 101.056C74.248 95.872 75.448 89.056 76.792 80.608C78.424 71.2 80.44 63.184 82.84 56.56C85.24 49.84 88.12 44.56 91.48 40.72C89.368 39.952 86.92 39.328 84.136 38.848C81.448 38.368 78.52 38.128 75.352 38.128C67.864 38.128 61.144 39.712 55.192 42.88C49.336 46.048 44.68 50.368 41.224 55.84C37.864 61.216 36.184 67.408 36.184 74.416C36.184 78.064 36.808 81.52 38.056 84.784C39.304 88.048 41.128 90.688 43.528 92.704C45.928 94.72 48.808 95.728 52.168 95.728C55.528 95.728 58.456 94.768 60.952 92.848C63.544 90.928 65.512 88.432 66.856 85.36C68.296 82.192 69.016 78.736 69.016 74.992C69.016 71.248 68.248 67.936 66.712 65.056C65.176 62.08 62.632 60.592 59.08 60.592C56.392 60.592 54.136 61.552 52.312 63.472C50.584 65.296 49.72 67.552 49.72 70.24C49.72 73.024 50.728 74.512 52.744 74.704C53.32 74.704 53.8 74.56 54.184 74.272C54.664 74.272 54.904 74.464 54.904 74.848C54.904 75.712 54.088 76.144 52.456 76.144C51.208 76.144 50.008 75.568 48.856 74.416C47.8 73.264 47.272 71.92 47.272 70.384C47.272 67.312 48.52 64.624 51.016 62.32C53.512 59.92 56.296 58.72 59.368 58.72C62.344 58.72 64.792 59.584 66.712 61.312C68.632 63.04 70.072 65.248 71.032 67.936C71.992 70.624 72.472 73.36 72.472 76.144C72.472 82.672 70.36 88 66.136 92.128C62.008 96.16 56.68 98.176 50.152 98.176C46.024 98.176 42.472 97.072 39.496 94.864C36.616 92.56 34.408 89.632 32.872 86.08C31.432 82.432 30.712 78.592 30.712 74.56C30.712 66.496 32.728 59.632 36.76 53.968C40.792 48.304 46.168 43.984 52.888 41.008C59.608 37.936 66.952 36.4 74.92 36.4C81.928 36.4 88.024 37.312 93.208 39.136C97.144 35.2 101.224 33.232 105.448 33.232C106.984 33.232 107.752 33.52 107.752 34.096C107.752 34.576 107.224 34.816 106.168 34.816C102.328 34.816 99.016 36.496 96.232 39.856C110.824 45.136 118.12 53.488 118.12 64.912C118.12 68.944 117.064 72.592 114.952 75.856C112.84 79.024 110.008 81.808 106.456 84.208C103 86.512 99.16 88.288 94.936 89.536C90.808 90.784 86.728 91.456 82.696 91.552C81.256 102.592 79 111.088 75.928 117.04C71.896 125.008 65.464 130.768 56.632 134.32C55.192 134.896 53.608 135.184 51.88 135.184ZM82.696 89.824C88.264 89.536 93.256 88.432 97.672 86.512C102.088 84.592 105.592 81.856 108.184 78.304C110.776 74.656 112.072 70.144 112.072 64.768C112.072 54.304 106.264 46.672 94.648 41.872C88.792 50.608 84.808 66.592 82.696 89.824Z" fill="white"/>
<path d="M51.88 135.184C43.72 135.184 39.64 132.208 39.64 126.256C39.64 122.992 40.6 121.36 42.52 121.36C43.096 121.36 43.384 121.84 43.384 122.8C43.384 122.992 43.384 123.232 43.384 123.52C43.384 123.808 43.336 124.192 43.24 124.672C43.144 125.152 43.096 125.584 43.096 125.968C43.096 126.352 43.096 126.64 43.096 126.832C43.096 130.864 45.736 132.88 51.016 132.88C59.656 132.88 66.184 125.92 70.6 112C71.272 109.888 72.136 106.24 73.192 101.056C74.248 95.872 75.448 89.056 76.792 80.608C78.424 71.2 80.44 63.184 82.84 56.56C85.24 49.84 88.12 44.56 91.48 40.72C89.368 39.952 86.92 39.328 84.136 38.848C81.448 38.368 78.52 38.128 75.352 38.128C67.864 38.128 61.144 39.712 55.192 42.88C49.336 46.048 44.68 50.368 41.224 55.84C37.864 61.216 36.184 67.408 36.184 74.416C36.184 78.064 36.808 81.52 38.056 84.784C39.304 88.048 41.128 90.688 43.528 92.704C45.928 94.72 48.808 95.728 52.168 95.728C55.528 95.728 58.456 94.768 60.952 92.848C63.544 90.928 65.512 88.432 66.856 85.36C68.296 82.192 69.016 78.736 69.016 74.992C69.016 71.248 68.248 67.936 66.712 65.056C65.176 62.08 62.632 60.592 59.08 60.592C56.392 60.592 54.136 61.552 52.312 63.472C50.584 65.296 49.72 67.552 49.72 70.24C49.72 73.024 50.728 74.512 52.744 74.704C53.32 74.704 53.8 74.56 54.184 74.272C54.664 74.272 54.904 74.464 54.904 74.848C54.904 75.712 54.088 76.144 52.456 76.144C51.208 76.144 50.008 75.568 48.856 74.416C47.8 73.264 47.272 71.92 47.272 70.384C47.272 67.312 48.52 64.624 51.016 62.32C53.512 59.92 56.296 58.72 59.368 58.72C62.344 58.72 64.792 59.584 66.712 61.312C68.632 63.04 70.072 65.248 71.032 67.936C71.992 70.624 72.472 73.36 72.472 76.144C72.472 82.672 70.36 88 66.136 92.128C62.008 96.16 56.68 98.176 50.152 98.176C46.024 98.176 42.472 97.072 39.496 94.864C36.616 92.56 34.408 89.632 32.872 86.08C31.432 82.432 30.712 78.592 30.712 74.56C30.712 66.496 32.728 59.632 36.76 53.968C40.792 48.304 46.168 43.984 52.888 41.008C59.608 37.936 66.952 36.4 74.92 36.4C81.928 36.4 88.024 37.312 93.208 39.136C97.144 35.2 101.224 33.232 105.448 33.232C106.984 33.232 107.752 33.52 107.752 34.096C107.752 34.576 107.224 34.816 106.168 34.816C102.328 34.816 99.016 36.496 96.232 39.856C110.824 45.136 118.12 53.488 118.12 64.912C118.12 68.944 117.064 72.592 114.952 75.856C112.84 79.024 110.008 81.808 106.456 84.208C103 86.512 99.16 88.288 94.936 89.536C90.808 90.784 86.728 91.456 82.696 91.552C81.256 102.592 79 111.088 75.928 117.04C71.896 125.008 65.464 130.768 56.632 134.32C55.192 134.896 53.608 135.184 51.88 135.184ZM82.696 89.824C88.264 89.536 93.256 88.432 97.672 86.512C102.088 84.592 105.592 81.856 108.184 78.304C110.776 74.656 112.072 70.144 112.072 64.768C112.072 54.304 106.264 46.672 94.648 41.872C88.792 50.608 84.808 66.592 82.696 89.824Z" fill="url(#paint1_linear_22_8)"/>
<defs>
<linearGradient id="paint0_linear_22_8" x1="72" y1="18" x2="72" y2="162" gradientUnits="userSpaceOnUse">
<stop offset="0.38"/>
<stop offset="1" stop-color="#666666"/>
</linearGradient>
<linearGradient id="paint1_linear_22_8" x1="113" y1="90" x2="31" y2="90" gradientUnits="userSpaceOnUse">
<stop offset="0.5" stop-color="#AF8360"/>
<stop offset="0.64" stop-color="white"/>
</linearGradient>
</defs>
</svg>
